<?xml version="1.0" standalone="no"?><!DOCTYPE svg PUBLIC "-//W3C//DTD SVG 1.1//EN" "http://www.w3.org/Graphics/SVG/1.1/DTD/svg11.dtd"><svg t="1753444267860" class="icon" viewBox="0 0 1024 1024" version="1.1" xmlns="http://www.w3.org/2000/svg" p-id="1617" xmlns:xlink="http://www.w3.org/1999/xlink" width="200" height="200"><path d="M663.466667 211.2L364.8 512l300.8 300.8c14.933333 14.933333 17.066667 38.4 4.266667 53.333333-2.133333 2.133333-2.133333 4.266667-4.266667 6.4-14.933333 14.933333-38.4 17.066667-53.333333 4.266667-2.133333-2.133333-4.266667-2.133333-6.4-4.266667L273.066667 541.866667c-17.066667-17.066667-17.066667-42.666667 0-59.733334L603.733333 151.466667c8.533333-8.533333 19.2-12.8 29.866667-12.8 10.666667 0 21.333333 4.266667 29.866667 12.8 8.533333 8.533333 12.8 19.2 12.8 29.866666 0 10.666667-4.266667 21.333333-12.8 29.866667z" p-id="1618"></path></svg>