<?xml version="1.0" standalone="no"?><!DOCTYPE svg PUBLIC "-//W3C//DTD SVG 1.1//EN" "http://www.w3.org/Graphics/SVG/1.1/DTD/svg11.dtd"><svg t="1753883963106" class="icon" viewBox="0 0 1024 1024" version="1.1" xmlns="http://www.w3.org/2000/svg" p-id="11991" xmlns:xlink="http://www.w3.org/1999/xlink" width="200" height="200"><path d="M773.688889 85.333333H512c-17.066667 0-28.444444-11.377778-28.444444-28.444444s11.377778-28.444444 28.444444-28.444445h261.688889c17.066667 0 28.444444 11.377778 28.444444 28.444445s-11.377778 28.444444-28.444444 28.444444zM773.688889 995.555556H512c-17.066667 0-28.444444-11.377778-28.444444-28.444445s11.377778-28.444444 28.444444-28.444444h261.688889c17.066667 0 28.444444 11.377778 28.444444 28.444444s-11.377778 28.444444-28.444444 28.444445z" fill="#ffffff" p-id="11992"></path><path d="M642.844444 995.555556c-17.066667 0-28.444444-11.377778-28.444444-28.444445V56.888889c0-17.066667 11.377778-28.444444 28.444444-28.444445s28.444444 11.377778 28.444445 28.444445v910.222222c0 17.066667-11.377778 28.444444-28.444445 28.444445zM853.333333 853.333333h-79.644444c-17.066667 0-28.444444-11.377778-28.444445-28.444444s11.377778-28.444444 28.444445-28.444445H853.333333c45.511111 0 85.333333-39.822222 85.333334-85.333333V307.2c0-45.511111-39.822222-85.333333-85.333334-85.333333h-79.644444c-17.066667 0-28.444444-11.377778-28.444445-28.444445s11.377778-28.444444 28.444445-28.444444H853.333333c79.644444 0 142.222222 62.577778 142.222223 142.222222v403.911111c0 79.644444-62.577778 142.222222-142.222223 142.222222zM512 853.333333H170.666667C91.022222 853.333333 28.444444 790.755556 28.444444 711.111111V307.2C28.444444 227.555556 91.022222 164.977778 170.666667 164.977778h341.333333c17.066667 0 28.444444 11.377778 28.444444 28.444444s-11.377778 28.444444-28.444444 28.444445H170.666667c-45.511111 0-85.333333 39.822222-85.333334 85.333333v403.911111c0 45.511111 39.822222 85.333333 85.333334 85.333333h341.333333c17.066667 0 28.444444 11.377778 28.444444 28.444445s-11.377778 28.444444-28.444444 28.444444z" fill="#ffffff" p-id="11993"></path><path d="M210.488889 733.866667h-11.377778c-17.066667 0-22.755556-22.755556-17.066667-34.133334l136.533334-381.155555c0-17.066667 22.755556-22.755556 34.133333-17.066667 17.066667 0 22.755556 22.755556 17.066667 34.133333l-136.533334 381.155556c0 11.377778-17.066667 17.066667-28.444444 17.066667z" fill="#ffffff" p-id="11994"></path><path d="M477.866667 733.866667c-11.377778 0-22.755556-5.688889-28.444445-17.066667L312.888889 335.644444c0-17.066667 0-28.444444 17.066667-34.133333 17.066667 0 28.444444 0 34.133333 17.066667l136.533333 381.155555c0 17.066667 0 28.444444-17.066666 34.133334h-11.377778z" fill="#ffffff" p-id="11995"></path><path d="M426.666667 591.644444H261.688889c-17.066667 0-28.444444-11.377778-28.444445-28.444444s11.377778-28.444444 28.444445-28.444444h164.977778c17.066667 0 28.444444 11.377778 28.444444 28.444444s-11.377778 28.444444-28.444444 28.444444z" fill="#ffffff" p-id="11996"></path></svg>